<svg width="86" height="16" viewBox="0 0 86 16" fill="none" xmlns="http://www.w3.org/2000/svg">
<path d="M0.282493 15V0.454545H10.2115V3.30966H3.79812V6.29261H9.57937V9.15483H3.79812V15H0.282493ZM11.7669 15V4.09091H15.1404V6.07955H15.2541C15.4529 5.35985 15.7773 4.82481 16.2271 4.47443C16.6769 4.11932 17.2001 3.94176 17.7967 3.94176C17.9577 3.94176 18.1234 3.9536 18.2939 3.97727C18.4643 3.99621 18.6229 4.02699 18.7697 4.0696V7.08807C18.604 7.03125 18.3862 6.98627 18.1163 6.95312C17.8511 6.91998 17.6144 6.90341 17.4061 6.90341C16.9941 6.90341 16.6225 6.99574 16.291 7.1804C15.9643 7.36032 15.7063 7.61364 15.5169 7.94034C15.3322 8.26231 15.2399 8.6411 15.2399 9.0767V15H11.7669ZM24.7179 15.206C23.5768 15.206 22.5919 14.9811 21.7633 14.5312C20.9395 14.0767 20.305 13.4304 19.8599 12.5923C19.4196 11.7495 19.1994 10.7481 19.1994 9.58807C19.1994 8.46117 19.4219 7.47633 19.867 6.63352C20.3121 5.78598 20.9395 5.12784 21.7491 4.65909C22.5588 4.18561 23.5128 3.94886 24.6113 3.94886C25.3878 3.94886 26.0981 4.0696 26.742 4.31108C27.3859 4.55256 27.9423 4.91004 28.411 5.38352C28.8798 5.85701 29.2444 6.44176 29.5048 7.13778C29.7652 7.82907 29.8954 8.62216 29.8954 9.51705V10.3835H20.4139V8.36648H26.6639C26.6592 7.99716 26.5716 7.66809 26.4011 7.37926C26.2306 7.09044 25.9963 6.86553 25.698 6.70455C25.4044 6.53883 25.0659 6.45597 24.6824 6.45597C24.2941 6.45597 23.9461 6.54356 23.6383 6.71875C23.3306 6.8892 23.0867 7.12358 22.9068 7.42188C22.7269 7.71544 22.6322 8.04924 22.6227 8.4233V10.4759C22.6227 10.9209 22.7103 11.3116 22.8855 11.6477C23.0607 11.9792 23.3092 12.2372 23.6312 12.4219C23.9532 12.6065 24.3367 12.6989 24.7818 12.6989C25.0895 12.6989 25.3689 12.6562 25.6199 12.571C25.8708 12.4858 26.0862 12.3603 26.2662 12.1946C26.4461 12.0289 26.581 11.8253 26.671 11.5838L29.8599 11.6761C29.7273 12.3911 29.4361 13.0137 28.9863 13.544C28.5413 14.0696 27.9565 14.4792 27.2321 14.7727C26.5076 15.0616 25.6696 15.206 24.7179 15.206Z" fill="#FEFDFD"/>
<path d="M31.6692 15V0.454545H35.1848V12.1449H41.236V15H31.6692ZM58.182 15.1847C57.486 15.1847 56.8681 15.0687 56.3283 14.8366C55.7933 14.5999 55.3695 14.2448 55.057 13.7713C54.7492 13.2931 54.5953 12.6941 54.5953 11.9744C54.5953 11.3684 54.7019 10.857 54.915 10.4403C55.128 10.0237 55.4216 9.68513 55.7956 9.42472C56.1697 9.1643 56.6006 8.9678 57.0882 8.83523C57.5759 8.69792 58.0968 8.60559 58.6507 8.55824C59.271 8.50142 59.7705 8.44223 60.1493 8.38068C60.5281 8.31439 60.8027 8.22206 60.9732 8.10369C61.1484 7.98059 61.236 7.80776 61.236 7.58523V7.54972C61.236 7.18513 61.1105 6.90341 60.8596 6.70455C60.6086 6.50568 60.2701 6.40625 59.8439 6.40625C59.3846 6.40625 59.0153 6.50568 58.736 6.70455C58.4566 6.90341 58.2791 7.17803 58.2033 7.52841L55.0002 7.41477C55.0949 6.75189 55.3387 6.16004 55.7317 5.6392C56.1294 5.11364 56.6739 4.7017 57.3652 4.40341C58.0613 4.10038 58.897 3.94886 59.8723 3.94886C60.5684 3.94886 61.2099 4.03172 61.7971 4.19744C62.3842 4.35843 62.8955 4.59517 63.3311 4.90767C63.7667 5.21544 64.1029 5.59422 64.3397 6.04403C64.5811 6.49384 64.7019 7.00758 64.7019 7.58523V15H61.4348V13.4801H61.3496C61.1555 13.8494 60.9069 14.1619 60.6039 14.4176C60.3056 14.6733 59.9528 14.8651 59.5456 14.9929C59.1432 15.1207 58.6886 15.1847 58.182 15.1847ZM59.2544 12.9119C59.6285 12.9119 59.9647 12.8362 60.263 12.6847C60.566 12.5331 60.8075 12.3248 60.9874 12.0597C61.1673 11.7898 61.2573 11.4773 61.2573 11.1222V10.0852C61.1578 10.1373 61.0371 10.1847 60.8951 10.2273C60.7578 10.2699 60.6062 10.3101 60.4405 10.348C60.2748 10.3859 60.1043 10.419 59.9292 10.4474C59.754 10.4759 59.5859 10.5019 59.4249 10.5256C59.0982 10.5777 58.8188 10.6581 58.5868 10.767C58.3596 10.8759 58.1844 11.018 58.0613 11.1932C57.9429 11.3636 57.8837 11.5672 57.8837 11.804C57.8837 12.1638 58.0115 12.4384 58.2672 12.6278C58.5276 12.8172 58.8567 12.9119 59.2544 12.9119ZM66.8255 15V4.09091H70.199V6.07955H70.3127C70.5115 5.35985 70.8359 4.82481 71.2857 4.47443C71.7355 4.11932 72.2587 3.94176 72.8553 3.94176C73.0163 3.94176 73.182 3.9536 73.3525 3.97727C73.5229 3.99621 73.6815 4.02699 73.8283 4.0696V7.08807C73.6626 7.03125 73.4448 6.98627 73.1749 6.95312C72.9097 6.91998 72.673 6.90341 72.4647 6.90341C72.0527 6.90341 71.681 6.99574 71.3496 7.1804C71.0229 7.36032 70.7649 7.61364 70.5755 7.94034C70.3908 8.26231 70.2985 8.6411 70.2985 9.0767V15H66.8255ZM78.7164 8.77841V15H75.2434V4.09091H78.546V6.09375H78.6667C78.9082 5.42614 79.3201 4.90294 79.9025 4.52415C80.4849 4.14062 81.1786 3.94886 81.9835 3.94886C82.7505 3.94886 83.4158 4.12169 83.9792 4.46733C84.5474 4.80824 84.9877 5.28646 85.3002 5.90199C85.6175 6.51278 85.7737 7.22775 85.769 8.04688V15H82.296V8.72869C82.3007 8.12263 82.1468 7.64915 81.8343 7.30824C81.5266 6.96733 81.0981 6.79688 80.5488 6.79688C80.1842 6.79688 79.8623 6.87737 79.5829 7.03835C79.3083 7.1946 79.0952 7.41951 78.9437 7.71307C78.7969 8.00663 78.7212 8.36174 78.7164 8.77841Z" fill="#EFC11F"/>
<path d="M48.1554 15.206C47.0143 15.206 46.0294 14.9811 45.2008 14.5312C44.377 14.0767 43.7425 13.4304 43.2974 12.5923C42.8571 11.7495 42.6369 10.7481 42.6369 9.58807C42.6369 8.46117 42.8594 7.47633 43.3045 6.63352C43.7496 5.78598 44.377 5.12784 45.1866 4.65909C45.9963 4.18561 46.9503 3.94886 48.0488 3.94886C48.8253 3.94886 49.5356 4.0696 50.1795 4.31108C50.8234 4.55256 51.3798 4.91004 51.8485 5.38352C52.3173 5.85701 52.6819 6.44176 52.9423 7.13778C53.2027 7.82907 53.3329 8.62216 53.3329 9.51705V10.3835H43.8514V8.36648H50.1014C50.0967 7.99716 50.0091 7.66809 49.8386 7.37926C49.6681 7.09044 49.4338 6.86553 49.1355 6.70455C48.8419 6.53883 48.5034 6.45597 48.1199 6.45597C47.7316 6.45597 47.3836 6.54356 47.0758 6.71875C46.7681 6.8892 46.5242 7.12358 46.3443 7.42188C46.1644 7.71544 46.0697 8.04924 46.0602 8.4233V10.4759C46.0602 10.9209 46.1478 11.3116 46.323 11.6477C46.4982 11.9792 46.7467 12.2372 47.0687 12.4219C47.3907 12.6065 47.7742 12.6989 48.2193 12.6989C48.527 12.6989 48.8064 12.6562 49.0574 12.571C49.3083 12.4858 49.5237 12.3603 49.7037 12.1946C49.8836 12.0289 50.0185 11.8253 50.1085 11.5838L53.2974 11.6761C53.1648 12.3911 52.8736 13.0137 52.4238 13.544C51.9788 14.0696 51.394 14.4792 50.6696 14.7727C49.9451 15.0616 49.1071 15.206 48.1554 15.206Z" fill="url(#paint0_linear_11_43)"/>
<defs>
<linearGradient id="paint0_linear_11_43" x1="42.5" y1="-4" x2="42.5" y2="20" gradientUnits="userSpaceOnUse">
<stop stop-color="#EFC11F"/>
<stop offset="1" stop-color="#FEFDFD"/>
</linearGradient>
</defs>
</svg>
